# xmcd
#
# Track frame offsets: 
#        150
#        13310
#        34813
#        56073
#        83599
#        105789
#        138008
#        174097
#        187047
#        210728
#        237189
#        261289
#
# Disc length: 3793 seconds
#
# Revision: 3
# Processed by: cddbd v1.5.2PL0 Copyright (c) Steve Scherf et al.
# Submitted via: ExactAudioCopy v0.95b4
#
DISCID=960ecf0c
DTITLE=Regina Carter - I'll Be Seeing You: A Sentimental Journey
DYEAR=2006
DGENRE=Jazz
TTITLE0=Anitra's Dance
TTITLE1=Little Brown Jug
TTITLE2=Bei Mir Bist Du Schön
TTITLE3=Sentimental Journey
TTITLE4=You Took Advantage of Me
TTITLE5=St. Louis Blues
TTITLE6=A-Tisket, A-Tasket
TTITLE7=Blue Rose
TTITLE8=This Can't Be Love
TTITLE9=How Ruth Felt
TTITLE10=There's a Small Hotel
TTITLE11=I'll Be Seeing You
EXTD=Regina Carter: violin\nXavier Davis (ex track 4): piano\nMatthew 
EXTD=Parrish: bass\nAlvester Garnett (ex 4,9): drums\nDee Dee Bridgewa
EXTD=ter (3,9), Carla Cook (5,6,11): vocals\nPaquito D'Rivera (1-4,6):
EXTD=clarinet\nGil Goldstein (1-3,6,12): accordion\nRecorded by Joe F
EXTD=erla at Avatar Studios, New York US-NY, 2006-01-07/09.\nMixed by 
EXTD=Joe Ferla at Sony Music Studios, New York US-NY, 2006-01-14/17.\n
EXTD=Mastered by Mark Wilder at Sony Music Studios, New York US-NY, 20
EXTD=06-02-07.\nProduced by John Clayton.\nCD: Verve B0006226 (2006-06
EXTD=13), UPC 602498509623.
EXTT0=(Edvard Grieg]\nTranscribed and adapted by Xavier Davis from the
EXTT0=1939 John Kirby Orchestra recording.
EXTT1=(J.E. Winner - arr. Gil Goldstein)
EXTT2=(Sholom Secunda/Sammy Cahn/Saul Chaplin/Jacob Jacobs - arr. John 
EXTT2=Clayton)
EXTT3=(Les Brown/Bud Green/Ben Homer - arr. John Clayton)
EXTT4=(Richard Rodgers/Lorenz Hart - arr. Xavier Davis)
EXTT5=(W.C. Handy - arr. John Clayton)
EXTT6=(Al Feldman/Ella Fitzgerald - arr. The Regina Carter Band)
EXTT7=(Duke Ellington - arr. The Regina Carter Band)
EXTT8=(Richard Rodgers/Lorenz Hart - arr. John Clayton)
EXTT9=(Regina Carter)
EXTT10=(Richard Rodgers/Lorenz Hart - arr. Matthew Parrish)
EXTT11=(Sammy Fain/Irving Kahal - arr. Gil Goldstein)
PLAYORDER=
